<?xml version="1.0" standalone="no"?>
<!DOCTYPE svg PUBLIC "-//W3C//DTD SVG 20010904//EN"
 "http://www.w3.org/TR/2001/REC-SVG-20010904/DTD/svg10.dtd">
<svg version="1.0" xmlns="http://www.w3.org/2000/svg"
 width="1088.000000pt" height="1088.000000pt" viewBox="0 0 1088.000000 1088.000000"
 preserveAspectRatio="xMidYMid meet">
<metadata>
Created by potrace 1.14, written by Peter Selinger 2001-2017
</metadata>
<g transform="translate(0.000000,1088.000000) scale(0.100000,-0.100000)"
fill="#000000" stroke="none">
<path d="M10 5435 l0 -2665 249 0 248 0 0 2665 0 2665 -248 0 -249 0 0 -2665z"/>
<path d="M5195 5438 l0 -2663 248 -3 c136 -1 247 1 248 5 1 5 2 1204 3 2666
l1 2657 -250 0 -250 0 0 -2662z"/>
<path d="M8002 8059 c-12 -21 -27 -39 -32 -39 -6 0 -10 -7 -10 -15 0 -8 -4
-15 -8 -15 -4 0 -15 -12 -24 -27 -9 -16 -24 -37 -32 -48 -15 -19 -54 -70 -95
-125 -10 -14 -55 -74 -100 -133 -44 -60 -81 -113 -81 -117 0 -5 -4 -10 -8 -12
-5 -1 -63 -77 -130 -168 -67 -91 -128 -172 -135 -180 -8 -8 -23 -28 -33 -45
-10 -16 -23 -35 -29 -41 -13 -14 -22 -27 -210 -279 -85 -115 -162 -218 -170
-227 -7 -9 -22 -29 -32 -45 -10 -15 -28 -39 -40 -53 -13 -14 -23 -28 -23 -32
0 -3 -6 -13 -13 -20 -7 -7 -33 -40 -57 -73 -158 -216 -304 -410 -312 -413 -4
-2 -8 -8 -8 -13 0 -6 -111 -158 -193 -264 -68 -88 -167 -225 -167 -232 0 -10
2011 -10 2028 1 7 4 12 4 12 -1 0 -4 63 -8 140 -8 77 0 140 4 140 9 0 5 6 4
13 0 14 -11 378 -11 395 0 7 4 12 4 12 -1 0 -9 127 -10 135 -1 3 3 25 2 50 -2
24 -4 50 -3 57 1 6 4 16 5 21 2 14 -8 107 -9 107 -1 0 4 6 5 14 2 20 -8 116
-10 116 -3 0 4 15 4 33 0 17 -4 47 -4 65 0 17 3 32 4 32 0 0 -5 188 -6 250 -1
14 1 27 1 30 1 13 -5 120 -5 120 -1 0 3 43 4 95 3 52 -1 95 1 95 5 0 4 -11 21
-25 37 -13 17 -76 100 -140 185 -63 85 -121 162 -128 170 -7 8 -23 31 -37 50
-13 19 -27 37 -30 40 -3 3 -30 39 -60 80 -30 41 -60 82 -67 90 -61 77 -123
162 -123 169 0 5 -4 11 -8 13 -8 3 -232 296 -232 304 0 2 -9 14 -19 26 -23 27
-105 135 -336 445 -93 125 -174 233 -180 239 -5 6 -17 22 -25 34 -8 12 -35 48
-60 80 -25 32 -108 143 -185 247 -145 195 -153 206 -170 226 -6 7 -41 53 -78
103 -90 122 -88 121 -115 73z"/>
<path d="M10383 5435 l0 -2665 249 0 248 0 0 2665 0 2665 -248 0 -249 0 0
-2665z"/>
<path d="M2751 5308 c-51 -68 -144 -193 -207 -278 -63 -85 -124 -166 -134
-180 -10 -14 -74 -99 -141 -190 -110 -149 -221 -299 -242 -325 -12 -16 -175
-235 -387 -520 -331 -446 -364 -490 -372 -493 -5 -2 -8 -8 -8 -13 0 -5 -7 -17
-15 -26 -31 -38 -375 -503 -375 -509 0 -8 3961 0 3967 9 2 4 0 7 -4 7 -5 0
-17 13 -26 30 -10 16 -23 35 -30 42 -7 7 -24 29 -37 48 -13 19 -28 40 -33 45
-10 13 -146 193 -172 229 -11 15 -27 36 -35 46 -38 46 -236 314 -245 331 -5
10 -12 19 -16 19 -3 0 -21 22 -40 50 -19 27 -37 50 -41 50 -5 0 -8 4 -8 9 0 5
-59 87 -131 183 -72 95 -139 184 -149 198 -10 14 -65 87 -122 162 -57 75 -110
146 -118 158 -20 29 -165 221 -182 241 -7 9 -17 23 -23 32 -17 27 -575 767
-579 767 -2 0 -45 -55 -95 -122z"/>
</g>
</svg>
