<?xml version="1.0" encoding="utf-8"?>
<!-- Generator: Adobe Illustrator 19.2.1, SVG Export Plug-In . SVG Version: 6.00 Build 0)  -->
<!DOCTYPE svg PUBLIC "-//W3C//DTD SVG 1.1//EN" "http://www.w3.org/Graphics/SVG/1.1/DTD/svg11.dtd">
<svg version="1.1" id="Layer_1" xmlns="http://www.w3.org/2000/svg" xmlns:xlink="http://www.w3.org/1999/xlink" x="0px" y="0px"
	 viewBox="0 0 774.3 358.2" style="enable-background:new 0 0 774.3 358.2;" xml:space="preserve">
<style type="text/css">
	.st0{fill:#034694;}
	.st1{fill:#FFFFFF;}
</style>
<g>
	<rect class="st0" width="774.3" height="358.2"/>
	<g>
		<path class="st1" d="M261.5,94.1v110.3c0,32.6-23,56-55.8,56c-16.9,0-35.6-7.4-48.9-17.8L177,192c3,7.8,6.5,17.2,15.8,17.2
			c9.6,0,10.4-10.9,10.4-17.8V94.1H261.5z"/>
		<path class="st1" d="M338,94.1l18.2,42.8h1.7c1.7-5.2,3.3-10.4,5.4-15.4l11.7-27.4H442l-56,93.1v70.6h-58.2v-70.6l-57.1-93.1H338z
			"/>
		<path class="st1" d="M447.4,199.2l3,2.4c10.6,8.3,23.4,15,37.1,15c5.9,0,15.2-2.4,15.2-9.8c0-7.4-7.8-8-13.2-9.1l-11.9-2.2
			c-23.2-4.1-42.8-17.8-42.8-43.4c0-38.9,35.4-60.6,71-60.6c18.7,0,35.8,4.6,51.9,14.3l-16.1,41.9c-10.2-6.9-21.7-12.4-34.5-12.4
			c-5.2,0-12.8,2-12.8,8.7c0,6.1,7.4,6.9,11.9,8l13.5,3c25.2,5.6,43.4,19.1,43.4,46.9c0,39.1-35.6,58.4-71,58.4
			c-20.6,0-44.5-5.6-63-15L447.4,199.2z"/>
		<path class="st1" d="M580.8,94.1h58l-1.3,71h1.3c1.3-6.7,5-12.6,8.2-18.5l28.7-52.5h64.9l-51.2,79.7l56.7,84h-69l-28.2-49.5
			c-3.5-6.3-8.7-12.4-10-19.1h-1.3l1.3,68.6h-58V94.1z"/>
	</g>
	<g>
		<g>
			<path class="st1" d="M57.7,59.8c-2.4,0.1-4.5,0.9-6,2.5c-1.5,1.5-2.3,3.7-2.2,6.1c0.1,3.7,2.1,7.8,5.4,11
				c5.7,5.5,13.2,6.6,17.2,2.5c1.5-1.6,2.2-3.6,2.2-5.9c0-3.6-1.9-7.8-5.4-11.2C65.6,61.5,61.4,59.7,57.7,59.8z M68.9,64.7
				L68.9,64.7L68.9,64.7z"/>
			<path class="st1" d="M81.1,358.1c2.4-8.8,3.1-18,3.1-18c0.3-2.5,0.5-5,0.6-7.6c1.5-31-9.6-69.5-32.5-100.3
				c-23.2-31.3-37.9-54-37.9-73c0-19,13.9-28.1,23.7-30.3c9.9-2.2,35.8-2.2,45.2-10.2c9.3-7.8,14.6-19,13.5-32.8
				C95.8,72,92.4,41.7,45.5,39.5c-16.5-0.7-33.8,6-45.5,15L0,30c10.7-5.3,26.8-10.9,47.3-10.9c38.7,0,56.5,24.8,56.5,24.8
				s23,9.5,39,21.9c16.1,12.4,29.2,25.9,30.3,27.7c1.1,1.8,4,8.8-5.8,12c-9.9,3.3-29.5,6.9-49.6,6.9c0,0-13.1,23.4-33.9,30.6
				c-20.8,7.3-44.9,0.3-46,19.3c-0.7,13.1,10.9,28.8,15.3,35c4.4,6.2,54.3,55.9,51.4,132.1c-0.6,16.4-3.2,28.6-3.2,28.6L81.1,358.1z
				 M118.9,93.2c0,0,11.3,1.5,20.8,1.8c9.5,0.4,8-4,8-4c-4.4-3.6-30.3-18.2-30.3-18.2C113.8,82.2,118.9,93.2,118.9,93.2z"/>
		</g>
	</g>
</g>
</svg>
