<?xml version="1.0" encoding="UTF-8" standalone="no"?><!-- Generator: Gravit.io --><svg xmlns="http://www.w3.org/2000/svg" xmlns:xlink="http://www.w3.org/1999/xlink" style="isolation:isolate" viewBox="0 0 102 50" width="102pt" height="50pt"><defs><clipPath id="_clipPath_CDm95qyi8ceqeNkoTXVDhNjNN32NG4f9"><rect width="102" height="50"/></clipPath></defs><g clip-path="url(#_clipPath_CDm95qyi8ceqeNkoTXVDhNjNN32NG4f9)"><rect width="102" height="50" style="fill:rgb(0,0,0)" fill-opacity="0"/><clipPath id="_clipPath_F4W9GkP635I59phimjSWCTxIIPHWhVjj"><rect x="0" y="0" width="102" height="50" transform="matrix(1,0,0,1,0,0)" fill="rgb(255,255,255)"/></clipPath><g clip-path="url(#_clipPath_F4W9GkP635I59phimjSWCTxIIPHWhVjj)"><g><rect x="0" y="0" width="4.667" height="50" transform="matrix(1,0,0,1,0,0)" fill="rgb(157,161,163)"/><rect x="48.667" y="0" width="4.667" height="50" transform="matrix(1,0,0,1,0,0)" fill="rgb(156,160,162)"/><rect x="97.333" y="0" width="4.667" height="50" transform="matrix(1,0,0,1,0,0)" fill="rgb(159,162,164)"/><path d=" M 45.333 49.949 L 8 50 L 26.609 25 L 45.333 49.949 Z " fill="rgb(220,131,178)"/><path d=" M 94 24.949 L 56.667 25 L 75.276 0 L 94 24.949 Z " fill="rgb(220,131,178)"/></g></g></g></svg>