<?xml version="1.0" encoding="UTF-8" standalone="no"?><!-- Generator: Gravit.io --><svg xmlns="http://www.w3.org/2000/svg" xmlns:xlink="http://www.w3.org/1999/xlink" style="isolation:isolate" viewBox="0 0 560 275" width="560pt" height="275pt"><defs><clipPath id="_clipPath_iIVZTRG3KpjXrSKZir155IiNyYUKpUjq"><rect width="560" height="275"/></clipPath></defs><g clip-path="url(#_clipPath_iIVZTRG3KpjXrSKZir155IiNyYUKpUjq)"><clipPath id="_clipPath_bOHGBGkam0jjL1TMdPkBAFUJbJ35TCn1"><rect x="0" y="0" width="561" height="275" transform="matrix(1,0,0,1,0,0)" fill="rgb(255,255,255)"/></clipPath><g clip-path="url(#_clipPath_bOHGBGkam0jjL1TMdPkBAFUJbJ35TCn1)"><g><rect x="0" y="0" width="561" height="275" transform="matrix(1,0,0,1,0,0)" fill="none"/><clipPath id="_clipPath_c2jx0lEsoQ369KMiMlY4tQZEPLtcwjAy"><rect x="0" y="0" width="561" height="275" transform="matrix(1,0,0,1,0,0)" fill="rgb(255,255,255)"/></clipPath><g clip-path="url(#_clipPath_c2jx0lEsoQ369KMiMlY4tQZEPLtcwjAy)"><g><g><rect x="0" y="0" width="25.668" height="275" transform="matrix(1,0,0,1,0,0)" fill="rgb(0,0,0)"/><rect x="267.668" y="0" width="25.668" height="275" transform="matrix(1,0,0,1,0,0)" fill="rgb(0,0,0)"/><rect x="535.332" y="0" width="25.668" height="275" transform="matrix(1,0,0,1,0,0)" fill="rgb(0,0,0)"/><path d=" M 249.332 274.72 L 44 275 L 146.35 137.5 L 249.332 274.72 Z " fill="rgb(220,131,178)"/><path d=" M 517 137.22 L 311.669 137.5 L 414.018 0 L 517 137.22 Z " fill="rgb(220,131,178)"/></g></g></g></g></g></g></svg>