<?xml version="1.0" encoding="UTF-8" standalone="no"?>
<!-- Created with Inkscape (http://www.inkscape.org/) -->
<svg
   xmlns:svg="http://www.w3.org/2000/svg"
   xmlns="http://www.w3.org/2000/svg"
   version="1.0"
   width="721"
   height="179"
   viewBox="-0.288 -0.707 721 179"
   id="svg2"
   xml:space="preserve">
	<defs
   id="defs4">
	</defs>
	<g
   id="g6">
		
			<polygon
   points="581.8,127.929 586.147,42.285 547.999,23.015 548.979,3.746 716.987,3.746 716.065,21.945 671.476,42.285 667.069,129 708.507,150.41 707.308,173.96 534.112,173.96 535.198,152.55 581.8,127.929 "
   style="fill:#ff7313;fill-rule:evenodd;stroke:#000000;stroke-width:6.76009989;stroke-miterlimit:2.61310005"
   id="polygon8" />
		
			<path
   d="M 399.894,130.226 L 374.484,130.226 L 376.027,98.648 L 401.48,98.644 C 414.964,98.109 420.972,110.152 417.554,117.914 C 417.554,117.914 416.261,129.691 399.894,130.226 L 399.894,130.226 z M 403.019,68.929 L 377.609,68.929 L 379.156,39.265 L 405.883,39.265 C 415.996,38.999 423.258,46.453 421.055,55.929 C 421.054,55.929 420.409,68.937 403.019,68.929 L 403.019,68.929 z M 475.808,3.453 C 475.808,3.453 508.218,-0.027 514.492,41.078 C 514.492,41.078 517.082,69.422 488.277,86.039 C 519.675,95.109 513.968,133.113 513.968,133.113 C 504.484,176.293 460.292,173.824 460.292,173.824 L 246.399,173.824 L 247.706,152.414 L 287.575,127.828 L 291.378,41.023 L 254.003,22.867 L 255.31,3.594 L 475.808,3.453 L 475.808,3.453 z "
   style="fill:#ff7313;fill-rule:evenodd;stroke:#000000;stroke-width:6.76009989;stroke-miterlimit:2.61310005"
   id="path10" />
		
			<path
   d="M 123.032,26.89 L 128.012,26.89 C 139.467,26.89 148.266,36.476 147.666,48.3 L 143.734,125.8 C 143.132,137.624 133.361,147.21 121.904,147.21 L 116.925,147.21 C 105.47,147.21 96.671,137.624 97.269,125.8 L 101.205,48.3 C 101.804,36.476 111.577,26.89 123.032,26.89 L 123.032,26.89 z M 80.911,3.589 L 172.96,3.589 C 213.058,3.589 243.858,37.14 241.755,78.527 L 240.722,98.867 C 238.62,140.258 204.415,173.805 164.322,173.805 L 72.272,173.805 C 32.18,173.805 1.379,140.258 3.481,98.867 L 4.51,78.527 C 6.614,37.14 40.819,3.589 80.911,3.589 L 80.911,3.589 z "
   style="fill:#ff7313;fill-rule:evenodd;stroke:#000000;stroke-width:6.76009989;stroke-miterlimit:2.61310005"
   id="path12" />
		<path
   d="M 679.155,111.335 C 679.155,107.019 680.85,103.105 683.589,100.28 C 686.327,97.452 690.116,95.702 694.296,95.702 C 698.48,95.702 702.265,97.452 705.003,100.28 C 707.745,103.104 709.441,107.018 709.441,111.335 C 709.441,115.648 707.746,119.558 705.003,122.386 L 704.999,122.386 C 702.257,125.214 698.472,126.964 694.296,126.964 C 690.128,126.964 686.339,125.214 683.597,122.386 C 683.597,122.382 683.593,122.382 683.589,122.378 C 680.851,119.546 679.155,115.64 679.155,111.335 L 679.155,111.335 z M 694.308,113.191 L 690.949,113.191 L 690.949,119.121 L 688.14,119.121 L 688.14,103.422 L 695.956,103.418 C 698.19,103.481 699.823,104.68 700.612,106.199 C 700.952,106.859 701.139,107.578 701.147,108.293 L 701.147,108.301 C 701.151,109.031 700.979,109.77 700.612,110.449 C 700.073,111.437 699.12,112.277 697.721,112.762 L 701.713,119.399 L 698.037,119.399 L 694.308,113.191 L 694.308,113.191 z M 690.948,110.292 C 692.616,110.292 694.046,110.183 695.921,110.183 L 696.171,110.183 L 696.179,110.195 C 697.242,109.996 697.882,109.558 698.167,109.035 C 698.288,108.82 698.343,108.57 698.339,108.324 C 698.339,108.062 698.269,107.793 698.148,107.554 C 697.796,106.882 697.007,106.347 695.882,106.316 L 690.948,106.316 L 690.948,110.292 L 690.948,110.292 z M 685.667,102.421 C 683.46,104.702 682.097,107.855 682.097,111.335 C 682.097,114.815 683.456,117.968 685.663,120.241 L 685.667,120.245 C 687.87,122.522 690.925,123.929 694.296,123.929 C 697.671,123.929 700.722,122.519 702.929,120.245 L 702.929,120.241 C 705.136,117.96 706.503,114.815 706.503,111.335 C 706.503,107.855 705.136,104.702 702.929,102.425 C 700.718,100.144 697.667,98.734 694.296,98.734 C 690.929,98.734 687.878,100.144 685.667,102.421 L 685.667,102.421 z "
   id="path14" />
	</g>
</svg>